<svg xmlns="http://www.w3.org/2000/svg" version="1.1" xmlns:xlink="http://www.w3.org/1999/xlink" xmlns:svgjs="http://svgjs.com/svgjs" width="1080.000000pt" height="1080.000000pt"><svg version="1.0" xmlns="http://www.w3.org/2000/svg" width="1080.000000pt" height="1080.000000pt" viewBox="0 0 1080.000000 1080.000000" preserveAspectRatio="xMidYMid meet">

<g transform="translate(0.000000,1080.000000) scale(0.100000,-0.100000)" fill="#000000" stroke="none">
<path d="M4348 10077 c-18 -34 -64 -125 -103 -202 -63 -124 -79 -148 -155
-225 -52 -53 -106 -97 -140 -114 -51 -26 -68 -29 -220 -37 -177 -10 -238 -18
-423 -55 -65 -13 -123 -21 -129 -18 -6 4 -7 29 -3 65 4 33 3 59 -1 59 -5 0
-33 -17 -64 -39 -78 -54 -169 -101 -197 -101 -32 0 -80 26 -93 49 -31 60 20
146 102 171 93 28 108 34 108 46 0 20 -12 22 -75 13 -89 -13 -217 -48 -290
-79 -119 -50 -427 -214 -505 -270 -33 -23 -37 -49 -21 -123 5 -23 15 -71 21
-107 7 -36 16 -78 20 -95 4 -16 13 -57 20 -90 12 -56 66 -183 107 -250 38 -62
132 -182 184 -234 97 -96 155 -130 113 -66 -52 80 -164 304 -189 380 -36 108
-56 255 -34 255 23 0 69 -42 69 -63 0 -55 92 -237 120 -237 6 0 10 38 10 91 0
109 9 112 60 17 47 -87 113 -188 123 -188 5 0 6 33 2 73 -6 61 -4 76 9 90 13
12 23 14 49 6 115 -36 161 -47 237 -58 47 -7 115 -16 152 -22 37 -5 86 -9 110
-9 78 0 167 -36 168 -67 0 -16 4 -17 -55 6 -59 22 -142 36 -322 52 -107 10
-135 10 -148 -1 -23 -19 -19 -25 25 -45 23 -10 43 -22 46 -27 10 -16 -72 -115
-241 -288 -94 -96 -185 -195 -202 -220 -53 -77 -74 -159 -80 -300 l-4 -125 62
70 c76 86 381 391 465 465 34 30 128 106 210 169 173 133 210 166 230 204 24
46 34 31 34 -53 0 -147 -66 -339 -177 -513 -30 -47 -49 -67 -59 -63 -12 5 -89
57 -150 101 -19 14 -26 2 -31 -52 -4 -33 2 -67 16 -108 24 -68 25 -75 10 -75
-32 0 -110 50 -170 110 l-69 69 -67 -62 c-138 -128 -237 -268 -273 -384 -4
-15 -20 -66 -35 -113 -43 -135 -85 -295 -85 -320 1 -14 26 36 66 130 23 54 96
202 124 250 62 108 257 400 267 400 6 0 16 -26 21 -57 9 -50 7 -64 -9 -100
-36 -80 -18 -120 66 -143 61 -17 190 -9 240 15 74 35 156 97 283 212 158 144
212 181 283 193 169 28 188 40 215 124 15 46 15 55 1 88 -14 34 -80 88 -108
88 -25 0 1 26 40 40 37 13 45 13 68 0 25 -14 44 -55 58 -122 3 -16 10 -28 15
-28 6 0 54 34 108 76 53 42 114 88 135 101 103 65 108 67 198 68 78 0 89 -2
122 -27 51 -40 67 -78 67 -164 0 -70 -2 -75 -49 -146 -44 -65 -156 -182 -336
-351 -33 -30 -57 -58 -55 -61 8 -7 258 121 322 166 14 10 29 18 33 18 17 0
194 130 244 180 127 125 161 192 161 320 0 84 -3 97 -31 148 -62 114 -110 155
-226 193 -80 27 -396 69 -518 69 -49 0 -85 9 -85 21 0 10 -5 8 185 44 141 27
272 66 368 109 29 13 81 36 117 51 105 43 254 125 327 179 298 218 463 356
463 386 0 8 -9 9 -32 3 -56 -14 -566 -5 -745 13 -61 6 -62 9 -37 101 38 140
64 257 64 288 -1 15 -27 -7 -98 -81 -72 -76 -126 -121 -212 -176 -115 -75
-150 -94 -150 -80 0 4 7 48 15 97 8 50 15 110 15 135 0 62 -23 230 -31 230 -4
0 -23 -28 -41 -63z"></path>
<path d="M5555 9491 c-16 -10 -68 -51 -115 -90 -73 -61 -180 -135 -318 -218
l-34 -20 59 -22 c32 -13 67 -27 78 -31 139 -56 225 -71 420 -77 190 -6 265 3
408 48 34 10 78 24 97 30 198 61 530 222 530 257 0 4 -75 7 -168 8 -113 1
-191 6 -242 17 -144 31 -366 75 -435 87 -38 7 -89 16 -112 21 -68 15 -135 11
-168 -10z"></path>
<path d="M6445 9186 c-111 -57 -178 -83 -297 -117 -27 -7 -48 -19 -48 -25 0
-17 234 -176 320 -217 111 -53 228 -83 365 -93 49 -3 291 16 415 33 63 8 192
16 285 17 l170 1 80 -39 c150 -74 415 -259 488 -339 36 -41 15 -31 -74 36
-355 266 -436 307 -607 307 -91 0 -161 -8 -282 -31 -30 -6 -65 -13 -77 -15
-33 -6 -29 -17 25 -55 26 -18 103 -88 172 -155 201 -194 231 -218 325 -256
102 -42 233 -71 445 -98 218 -28 364 -56 421 -78 38 -15 92 -65 158 -146 76
-95 114 -146 108 -146 -3 0 -62 50 -132 110 -181 156 -214 176 -309 189 -88
12 -183 14 -303 4 -68 -5 -83 -9 -83 -22 0 -9 16 -54 35 -101 49 -115 42 -146
-10 -44 -30 58 -52 87 -87 114 -50 37 -163 77 -250 87 l-52 6 85 -98 c278
-324 282 -327 391 -400 96 -64 199 -110 316 -141 62 -16 62 -16 62 -6 0 7 -62
43 -147 86 -13 6 -23 14 -23 19 0 4 -7 7 -17 7 -9 0 -14 3 -10 6 3 4 39 -7 79
-24 113 -47 158 -60 428 -128 175 -44 330 -102 330 -124 0 -14 -16 -12 -49 5
-99 51 -388 112 -413 87 -14 -14 57 -240 109 -347 60 -125 115 -169 491 -401
35 -21 80 -52 100 -68 31 -24 33 -27 12 -21 -14 4 -47 18 -75 30 -136 61 -149
65 -159 55 -28 -28 -16 -395 15 -452 5 -10 9 -24 9 -32 0 -23 67 -148 102
-190 18 -21 114 -110 213 -196 210 -183 259 -234 276 -286 13 -41 26 -612 14
-642 -13 -34 -26 10 -44 144 -11 76 -24 191 -30 254 -22 223 -32 272 -62 316
-28 42 -117 125 -185 173 l-36 26 -19 -24 c-55 -67 -72 -226 -56 -511 5 -80 6
-142 3 -139 -4 3 -13 41 -21 83 -20 101 -19 327 1 431 30 159 30 158 -7 189
-19 16 -62 55 -97 88 -35 33 -67 57 -70 53 -12 -11 -2 -243 13 -329 26 -146
34 -185 59 -268 40 -138 98 -268 157 -355 16 -23 29 -44 29 -46 0 -15 154
-227 282 -389 33 -41 46 -67 44 -82 -3 -11 -14 -73 -26 -136 -12 -63 -27 -128
-33 -144 -9 -26 -12 -27 -18 -10 -4 10 -8 73 -8 139 -2 191 -40 313 -125 394
l-35 34 -46 -49 c-25 -27 -69 -81 -98 -121 -28 -39 -55 -72 -59 -72 -16 -2 -6
21 39 91 70 110 83 136 83 166 0 31 -63 161 -86 179 -20 15 -64 -3 -64 -27 0
-9 -4 -20 -8 -25 -14 -16 -51 -155 -67 -250 -17 -105 -20 -301 -5 -377 18 -91
43 -183 52 -193 4 -5 8 21 8 57 0 37 4 69 8 72 4 2 14 -16 21 -42 20 -73 28
-97 77 -247 25 -77 49 -149 54 -160 35 -79 54 -157 55 -220 0 -67 -3 -76 -76
-225 -97 -196 -189 -348 -189 -311 0 12 17 53 75 176 98 209 128 404 86 558
-18 66 -62 147 -80 147 -5 0 -47 -38 -94 -85 -79 -80 -185 -224 -237 -325 -43
-81 -34 -16 9 74 49 101 121 199 209 282 l65 61 -22 79 c-13 44 -30 105 -39
137 -9 31 -22 57 -29 57 -30 0 -184 -358 -231 -535 -6 -22 -15 -59 -21 -81
-14 -52 -14 -217 -1 -281 25 -118 99 -502 105 -543 4 -25 2 -57 -3 -71 -8 -21
-229 -311 -251 -329 -3 -3 -34 -37 -69 -77 -70 -80 -220 -218 -228 -211 -2 3
37 60 88 128 218 286 266 359 338 505 34 68 35 73 35 195 0 138 -20 270 -41
270 -21 0 -211 -168 -284 -249 -105 -118 -124 -137 -117 -118 18 49 98 145
208 251 l123 118 10 122 c14 176 11 178 -83 81 -127 -132 -219 -286 -286 -478
-76 -220 -97 -324 -48 -247 24 37 41 25 25 -18 -10 -28 -23 -91 -42 -207 -6
-38 -15 -92 -21 -118 -5 -27 -9 -65 -9 -84 0 -73 -34 -252 -56 -299 -11 -22
-58 -67 -128 -123 -166 -131 -427 -308 -410 -278 5 8 109 118 230 244 271 279
309 323 329 382 20 59 34 331 17 331 -18 0 -277 -137 -357 -188 -151 -96 -197
-182 -266 -489 -30 -138 -59 -264 -72 -316 -7 -32 -20 -54 -37 -66 -38 -26
-317 -164 -385 -191 -33 -13 -65 -27 -72 -32 -6 -5 -14 -5 -16 -1 -3 5 51 47
121 93 219 148 278 194 319 257 22 32 44 72 51 88 20 53 60 199 67 243 8 51
11 50 -132 21 -57 -12 -106 -19 -110 -15 -9 8 -10 8 92 42 l90 30 47 94 c47
94 59 140 36 140 -58 0 -376 -210 -518 -344 -187 -176 -272 -313 -365 -591
-54 -160 -68 -189 -104 -205 -45 -21 -130 -49 -199 -65 -273 -64 -412 -87
-412 -67 0 7 69 33 135 52 282 80 336 99 395 136 91 57 123 106 160 245 20 77
13 93 -45 102 -72 11 -340 -2 -405 -20 -171 -47 -342 -168 -512 -363 -65 -74
-136 -152 -159 -174 l-41 -39 -287 7 c-303 7 -392 14 -398 32 -6 20 133 33
392 39 138 2 263 8 280 11 16 4 50 28 75 53 49 50 180 231 180 251 0 6 -39 30
-87 53 l-88 42 -135 0 c-119 0 -145 -4 -218 -27 -135 -44 -247 -110 -447 -263
-174 -133 -195 -141 -307 -115 -131 30 -256 63 -358 95 -63 20 -125 39 -137
42 -13 3 -23 10 -23 16 0 6 19 7 53 3 93 -11 201 -25 267 -36 177 -28 297 -41
331 -35 60 10 186 101 347 249 23 22 42 45 42 52 0 12 -27 29 -150 96 -169 93
-348 93 -595 1 -113 -42 -154 -63 -275 -141 -163 -106 -191 -117 -260 -102
-29 7 -61 16 -70 20 -8 5 -35 17 -60 28 -246 107 -369 176 -348 197 2 2 40 -5
83 -16 113 -29 134 -35 185 -51 50 -17 104 -32 165 -48 22 -5 74 -10 117 -10
l76 0 221 107 c157 77 220 113 221 125 0 9 -15 28 -32 42 -40 30 -198 108
-253 126 -77 24 -83 29 -44 29 47 1 86 -13 234 -85 l120 -59 118 -3 117 -4 0
26 c0 21 -9 30 -57 52 -265 121 -447 156 -642 123 -91 -16 -100 -29 -18 -29
38 0 67 -4 67 -10 0 -6 -27 -10 -60 -10 -90 0 -209 -33 -525 -145 -71 -26
-148 -53 -170 -61 -70 -24 -105 -18 -191 34 -68 41 -226 150 -274 188 -137
110 -300 259 -300 276 0 5 10 6 22 2 22 -7 49 -14 130 -34 117 -30 222 -84
383 -196 249 -173 277 -180 467 -115 210 71 203 66 166 154 -22 53 -109 191
-128 202 -5 3 -15 15 -21 26 -9 18 -9 19 9 10 39 -21 103 -106 143 -188 45
-94 33 -89 174 -72 118 14 123 18 88 55 -84 88 -235 194 -338 238 -123 52
-285 66 -285 26 0 -15 -11 -20 -52 -24 -343 -39 -748 -33 -853 13 -43 19 -92
64 -197 182 -80 91 -192 238 -186 245 6 6 97 -18 161 -43 54 -20 94 -51 240
-187 202 -189 222 -197 470 -197 190 0 247 6 247 25 0 19 -94 198 -138 262
-73 108 -176 179 -297 204 -28 6 -209 13 -403 17 l-353 6 -43 56 c-116 153
-330 521 -312 538 10 11 91 -73 195 -202 132 -165 138 -172 210 -242 71 -70
109 -91 196 -109 62 -14 267 -19 278 -7 4 3 2 12 -3 18 -6 7 -53 99 -105 204
-81 162 -104 200 -153 249 -90 91 -207 140 -502 212 -88 22 -161 44 -189 59
-24 13 -51 62 -82 148 -37 105 -57 156 -123 328 -36 94 -66 177 -66 185 0 32
74 -60 112 -140 49 -103 48 -99 93 -230 57 -163 99 -221 195 -270 88 -45 312
-111 327 -97 10 11 -24 285 -44 348 -19 60 -76 151 -137 217 -59 64 -160 127
-369 231 -212 105 -220 112 -261 242 -39 123 -61 227 -76 364 -13 118 -13 375
0 375 6 0 10 -5 10 -10 0 -6 9 -29 19 -53 29 -65 30 -69 56 -251 34 -227 46
-281 89 -386 42 -102 103 -198 147 -230 46 -33 221 -120 242 -120 20 0 27 84
27 339 1 164 3 211 12 197 7 -12 12 -103 14 -247 2 -126 7 -236 13 -246 14
-26 117 -123 131 -123 9 0 11 27 6 107 -17 281 -45 420 -113 558 -30 61 -54
87 -163 178 -47 39 -90 76 -96 82 -6 5 -26 23 -45 39 -159 137 -311 288 -327
325 -11 27 -15 76 -15 201 0 180 5 215 63 505 5 22 14 51 20 65 12 30 5 -209
-10 -325 -5 -38 -9 -127 -10 -196 0 -153 23 -258 74 -335 34 -50 175 -174 200
-174 7 0 27 39 45 86 41 107 127 271 137 261 3 -2 -10 -42 -27 -88 -65 -174
-80 -236 -66 -268 19 -44 89 -141 102 -141 7 0 15 15 18 33 2 17 14 77 25 132
49 240 64 340 57 395 -10 90 -44 204 -70 236 l-25 29 6 -32 c4 -18 4 -33 1
-33 -3 0 -41 58 -85 128 -44 71 -114 181 -155 244 -96 147 -107 169 -107 212
0 85 59 296 125 451 7 17 29 68 48 115 19 47 57 130 83 185 46 96 48 98 52 65
6 -55 -16 -174 -67 -365 -5 -16 -25 -77 -46 -135 -137 -391 -137 -443 3 -592
50 -53 68 -66 78 -57 18 15 158 236 194 307 80 159 88 361 19 527 -23 56 -111
334 -119 376 -12 60 3 110 58 199 20 34 42 70 48 80 6 11 37 58 70 106 l59 86
3 -45 c3 -49 -18 -167 -44 -244 -18 -54 -43 -100 -103 -192 -22 -35 -41 -73
-41 -83 0 -28 35 -125 73 -203 l35 -70 43 45 c68 71 138 154 212 253 37 50 67
86 67 80 0 -26 -57 -118 -155 -248 l-105 -140 0 -87 c0 -67 -3 -88 -14 -88
-10 0 -15 -26 -19 -102 -9 -166 -32 -231 -152 -428 -81 -133 -84 -203 -14
-279 26 -28 37 -27 50 6 6 15 16 41 24 58 31 71 76 196 98 275 24 83 34 135
58 315 14 96 34 148 119 300 27 50 68 128 91 175 22 47 45 93 50 102 5 10 9
67 9 127 0 154 -17 234 -87 406 -24 61 -48 117 -53 126 -4 8 -16 47 -25 87
-10 40 -22 72 -26 72 -5 0 -18 -19 -30 -42 -20 -41 -165 -257 -178 -268 -11
-8 -135 -171 -170 -223 -35 -52 -131 -232 -272 -514 l-92 -182 -5 -123 c-2
-68 -8 -129 -12 -137 -5 -9 -23 8 -60 58 -29 39 -56 71 -59 71 -4 0 -7 -75 -7
-167 0 -167 0 -168 -37 -278 -20 -60 -41 -119 -46 -130 -48 -107 -70 -201 -71
-302 0 -71 4 -92 30 -148 29 -63 35 -85 25 -85 -5 0 -58 29 -93 51 -37 23 -34
4 11 -84 55 -106 71 -180 63 -283 -3 -44 -9 -149 -12 -235 -6 -144 -5 -161 16
-218 22 -62 71 -157 111 -213 12 -16 19 -31 16 -34 -3 -3 -26 2 -51 10 -64 22
-71 20 -50 -11 51 -78 109 -189 145 -283 52 -132 80 -192 146 -308 114 -201
136 -246 125 -250 -20 -6 -14 -20 31 -75 57 -70 93 -148 162 -352 78 -234 114
-306 189 -380 34 -34 78 -69 98 -78 99 -46 153 -125 286 -418 31 -68 92 -133
155 -162 282 -134 264 -121 384 -272 95 -118 177 -198 224 -217 19 -8 61 -20
94 -27 182 -40 178 -38 340 -193 81 -79 157 -150 169 -158 17 -12 55 -15 181
-15 179 0 187 -2 347 -96 40 -24 87 -51 103 -61 146 -86 205 -103 329 -94 68
5 95 4 98 -5 3 -8 22 -7 76 4 94 19 131 12 277 -53 85 -38 180 -70 230 -77 47
-6 99 4 250 49 55 17 108 32 118 35 23 7 22 -2 -8 -41 -14 -18 -25 -36 -25
-39 0 -10 28 -8 48 3 9 6 55 26 101 45 77 33 97 37 230 45 80 5 200 10 265 10
69 0 135 5 155 12 20 7 105 48 189 90 84 43 155 78 159 78 3 0 2 -16 -1 -35
-5 -23 -3 -35 4 -35 6 0 40 20 76 45 68 46 143 73 269 94 224 39 272 49 308
68 16 8 90 73 164 145 154 148 182 164 356 208 245 62 230 51 422 325 27 38
68 88 92 110 44 43 61 53 233 142 178 92 206 120 264 256 7 17 23 53 35 79 11
26 21 50 21 54 0 3 25 57 56 119 63 129 101 177 223 278 133 110 168 157 196
262 18 66 21 83 59 270 15 71 29 131 31 133 2 2 14 -12 27 -32 13 -20 26 -36
30 -36 8 0 16 52 28 186 12 145 32 202 135 378 111 193 123 226 108 308 -7 35
-15 74 -19 87 -6 21 -5 23 16 16 25 -8 25 -12 -2 100 -30 124 -22 191 36 310
42 87 76 185 76 219 0 16 -4 43 -10 60 -22 72 -91 359 -86 363 2 3 21 -7 40
-22 20 -15 36 -23 36 -17 0 5 -18 50 -41 99 -102 220 -108 249 -109 513 -1
231 -1 233 -83 350 -25 35 -44 66 -42 68 1 2 26 -3 54 -12 28 -8 51 -13 51
-10 0 3 -18 23 -40 46 -89 89 -95 104 -150 383 -26 131 -42 155 -186 292 -74
69 -134 130 -134 134 0 5 16 9 35 9 19 0 35 3 35 8 0 4 -19 21 -41 37 -68 49
-160 156 -190 220 -15 33 -44 103 -64 155 -49 128 -76 171 -127 205 -119 77
-304 231 -394 327 -32 35 -90 109 -129 163 -109 155 -172 214 -280 259 -49 21
-99 42 -110 46 -64 23 -452 223 -575 296 -214 127 -256 147 -400 194 -166 53
-297 81 -378 79 -49 -1 -74 -10 -177 -63z"></path>
<path d="M5025 9110 c-22 -16 -43 -29 -47 -30 -4 0 -34 -16 -65 -36 -32 -20
-69 -43 -82 -52 l-25 -15 25 -10 c68 -26 261 -67 367 -77 167 -16 411 5 577
51 46 13 61 19 127 48 26 12 53 21 60 21 7 0 8 3 3 9 -6 6 -29 6 -60 0 -27 -6
-131 -11 -230 -12 -149 0 -196 3 -275 20 -106 24 -236 65 -292 94 -21 10 -39
19 -40 19 -2 -1 -21 -14 -43 -30z"></path>
<path d="M5965 8981 c-33 -16 -90 -39 -127 -51 -37 -13 -64 -28 -62 -34 9 -22
263 -127 391 -162 164 -44 302 -64 454 -64 132 0 289 17 289 31 0 4 -33 10
-72 13 -334 27 -500 86 -724 257 -28 22 -59 39 -70 38 -10 0 -46 -13 -79 -28z"></path>
<path d="M4745 8933 c-71 -16 -200 -61 -193 -68 7 -7 120 -35 201 -50 68 -13
91 -12 180 1 171 25 177 26 177 35 0 5 -2 9 -4 9 -3 0 -62 15 -133 34 -137 36
-196 46 -228 39z"></path>
<path d="M5579 8841 c-63 -9 -104 -27 -79 -34 138 -42 460 -82 474 -59 4 6
-35 27 -96 50 -112 44 -200 56 -299 43z"></path>
<path d="M4890 8737 c0 -3 27 -38 60 -79 86 -104 94 -125 87 -222 -8 -126 -41
-202 -161 -369 -26 -37 -46 -71 -43 -74 9 -9 193 83 284 143 124 81 212 153
351 289 68 66 126 122 129 125 3 3 3 -34 0 -82 -4 -81 -7 -91 -41 -137 -78
-106 -157 -159 -338 -227 -43 -15 -88 -36 -100 -46 -23 -17 -23 -18 26 -18 46
0 79 5 226 32 265 48 469 143 597 276 56 58 103 140 103 179 0 91 -132 163
-345 189 -156 19 -221 18 -253 -4 -15 -10 -48 -29 -74 -42 l-48 -25 -72 25
c-40 13 -80 27 -88 31 -42 21 -95 31 -192 36 -60 3 -108 3 -108 0z"></path>
<path d="M6963 8650 c-74 -5 -104 -13 -92 -24 33 -32 461 -305 539 -343 143
-70 328 -129 347 -110 8 9 16 4 -97 61 -135 70 -160 89 -303 235 -173 176
-211 194 -394 181z"></path>
<path d="M6076 8628 c10 -13 21 -25 24 -28 3 -3 17 -21 30 -40 33 -46 33 -136
0 -195 -50 -92 -170 -188 -338 -270 -45 -22 -80 -44 -78 -49 6 -22 74 -29 301
-29 308 -1 371 14 469 111 96 94 126 181 89 259 -27 57 -130 150 -209 189 -72
36 -211 73 -273 74 l-34 0 19 -22z"></path>
<path d="M6592 8588 c14 -41 145 -106 318 -158 41 -12 95 -29 119 -36 69 -22
65 -10 -19 52 -111 83 -186 131 -219 143 -48 16 -204 15 -199 -1z"></path>
<path d="M3414 8497 c-22 -18 -56 -43 -75 -57 -150 -112 -429 -372 -429 -401
0 -5 16 -26 35 -47 l35 -37 48 55 c69 79 198 208 267 264 107 88 137 120 156
164 19 44 25 92 12 91 -5 0 -26 -14 -49 -32z"></path>
<path d="M6591 8481 c87 -118 84 -113 83 -181 -1 -94 -31 -143 -126 -208 -43
-29 -63 -39 -187 -90 -35 -15 -66 -32 -68 -38 -5 -15 83 -32 254 -50 67 -7
206 9 292 33 61 17 121 66 146 120 39 82 -10 194 -125 283 -52 40 -58 44 -179
105 -100 50 -109 53 -90 26z"></path>
<path d="M4350 8398 c-62 -35 -53 -48 17 -24 26 9 72 16 104 16 52 0 60 -3 78
-29 26 -36 29 -127 5 -173 -26 -49 -90 -113 -245 -243 -232 -196 -300 -284
-330 -432 -17 -83 -2 -99 31 -35 79 153 128 210 315 377 263 233 335 336 306
438 -39 131 -158 176 -281 105z"></path>
<path d="M4398 8338 c-21 -12 -40 -30 -44 -40 -6 -19 22 -138 35 -151 13 -13
76 10 111 40 51 43 37 129 -27 162 -29 15 -32 14 -75 -11z"></path>
<path d="M4227 8211 c-34 -61 -34 -86 -2 -134 22 -32 31 -37 64 -37 39 0 65
10 110 42 30 21 21 35 -28 43 -47 8 -73 35 -90 93 -6 23 -15 42 -20 42 -4 0
-20 -22 -34 -49z"></path>
<path d="M7057 8243 c4 -10 26 -48 50 -85 24 -36 43 -72 43 -79 0 -31 -111
-147 -179 -187 -44 -26 -51 -27 -191 -26 -120 0 -147 -3 -157 -15 -7 -9 -13
-21 -13 -28 0 -13 78 -52 205 -103 44 -17 89 -35 100 -40 114 -46 173 -55 272
-40 103 15 163 40 198 82 20 24 25 40 25 86 0 103 -44 195 -133 282 -55 54
-205 170 -221 170 -3 0 -2 -8 1 -17z"></path>
<path d="M5813 8181 c-23 -11 -56 -26 -75 -35 -76 -35 -156 -57 -358 -98 -121
-24 -206 -63 -258 -118 -27 -28 -72 -104 -72 -121 0 -5 30 11 68 34 62 39 81
49 145 77 12 5 83 30 157 55 195 66 236 83 325 136 123 72 162 112 68 70z"></path>
<path d="M3975 8108 c-48 -64 -80 -118 -70 -118 2 0 34 12 70 26 l66 26 -7 62
c-4 33 -8 63 -10 64 -1 2 -24 -25 -49 -60z"></path>
<path d="M7490 8111 c0 -20 95 -133 168 -201 77 -73 192 -158 192 -143 0 14
-58 122 -96 180 -40 59 -57 73 -165 132 -76 41 -99 49 -99 32z"></path>
<path d="M2408 8019 c-130 -89 -256 -207 -288 -268 -25 -49 -27 -146 -4 -211
41 -119 109 -230 141 -230 19 0 28 9 94 100 92 124 98 146 114 414 7 105 11
127 41 192 19 40 34 75 34 78 0 13 -20 1 -132 -75z"></path>
<path d="M7498 7933 c43 -91 46 -104 47 -179 0 -73 -3 -84 -27 -116 -47 -62
-92 -72 -278 -65 -88 4 -160 4 -160 0 0 -9 106 -80 189 -127 140 -79 330 -118
399 -82 35 18 75 62 97 105 41 81 0 222 -104 361 -51 67 -184 200 -200 200 -6
0 11 -44 37 -97z"></path>
<path d="M3742 7989 c-48 -10 -93 -45 -232 -178 -111 -107 -137 -127 -235
-177 -140 -72 -146 -78 -69 -71 74 8 163 39 221 78 23 16 45 29 48 29 4 0 32
19 63 43 92 70 249 177 260 177 9 0 16 -13 43 -85 l11 -30 10 25 c5 14 13 45
18 70 5 25 12 53 15 62 13 33 -88 71 -153 57z"></path>
<path d="M5905 7973 c-42 -9 -82 -28 -135 -64 -92 -61 -102 -85 -23 -55 34 13
117 34 357 91 122 29 118 34 -34 33 -80 0 -154 -2 -165 -5z"></path>
<path d="M4720 7949 c-14 -10 -28 -19 -31 -19 -10 0 -267 -148 -317 -182 -66
-45 -108 -91 -132 -143 -23 -51 -64 -205 -56 -212 3 -3 17 19 33 47 42 79 83
121 248 254 172 138 303 260 289 269 -5 3 -21 -3 -34 -14z"></path>
<path d="M6335 7866 c-58 -27 -84 -53 -101 -101 -14 -40 -10 -42 31 -15 72 49
183 89 289 105 25 4 46 11 46 15 0 13 -42 20 -130 20 -68 0 -95 -5 -135 -24z"></path>
<path d="M7864 7605 c41 -175 36 -241 -22 -296 -60 -57 -127 -72 -294 -67 -76
2 -138 0 -138 -4 0 -9 94 -79 147 -109 271 -156 471 -168 529 -30 29 68 12
197 -39 297 -31 61 -103 157 -152 204 l-38 35 7 -30z"></path>
<path d="M2482 7573 c-26 -38 -162 -255 -162 -258 0 -3 -13 -25 -29 -51 -45
-70 -80 -245 -48 -243 21 1 59 56 133 196 46 87 140 373 122 373 -2 0 -9 -8
-16 -17z"></path>
<path d="M8083 7508 c3 -7 13 -33 23 -58 38 -97 76 -138 231 -251 64 -46 89
-59 81 -41 -1 4 -27 56 -57 115 -55 113 -93 159 -158 192 -21 10 -50 27 -65
37 -30 21 -62 24 -55 6z"></path>
<path d="M8330 7449 c0 -14 29 -68 58 -109 133 -182 215 -280 324 -386 87 -85
176 -151 242 -178 62 -26 76 -20 36 16 -190 170 -212 200 -290 408 -35 94 -56
138 -74 156 -24 24 -93 52 -181 73 -49 13 -96 24 -102 27 -7 2 -13 -1 -13 -7z"></path>
<path d="M5160 7325 c-270 -44 -554 -218 -727 -445 -111 -147 -204 -345 -237
-505 -38 -185 -27 -451 25 -592 42 -116 48 -129 82 -195 142 -269 388 -495
822 -754 489 -291 538 -323 664 -433 76 -68 168 -187 210 -273 16 -35 35 -97
42 -139 11 -68 10 -84 -9 -163 -46 -188 -220 -391 -416 -486 -162 -79 -265
-102 -487 -107 -222 -6 -324 7 -570 73 -151 40 -209 51 -209 40 0 -3 4 -16 9
-29 8 -20 27 -29 118 -55 124 -36 397 -94 526 -112 48 -7 87 -14 87 -16 0 -3
-7 -16 -16 -29 -15 -23 -15 -25 1 -31 9 -4 80 -4 157 0 l141 8 -7 -29 c-18
-72 -15 -78 38 -81 60 -4 180 21 261 55 86 36 198 74 202 69 8 -8 -88 -68
-160 -100 -40 -18 -108 -43 -152 -55 -44 -13 -84 -27 -90 -31 -5 -5 -32 -11
-60 -15 -77 -12 -97 -22 -93 -47 2 -11 16 -30 31 -42 35 -26 144 -33 257 -17
44 7 84 9 90 6 6 -3 5 -15 -2 -30 -6 -14 -9 -28 -6 -31 3 -3 42 9 86 26 433
167 773 548 857 960 26 129 17 372 -20 495 -75 256 -262 509 -520 704 -118 89
-211 146 -495 304 -277 153 -389 221 -485 293 -93 69 -231 214 -277 289 -103
170 -115 373 -33 574 47 114 89 181 160 254 90 93 104 98 440 169 l60 13 -65
5 -65 5 66 8 c99 12 248 -21 369 -83 35 -18 47 -20 63 -11 10 7 28 9 40 6 16
-5 13 -1 -8 12 -54 34 -178 80 -277 104 -81 19 -98 26 -98 42 0 17 5 18 52 12
106 -15 240 -63 331 -119 l48 -29 15 22 c10 14 22 20 33 17 29 -10 -20 24 -74
51 -62 32 -59 27 -45 52 14 28 27 27 91 -8 30 -15 61 -26 69 -24 43 13 44 13
19 39 -13 14 -37 33 -52 41 -16 8 -27 17 -24 19 3 3 67 -24 144 -60 76 -36
152 -68 168 -72 l30 -7 -26 29 c-35 40 -65 89 -48 79 27 -16 145 -111 176
-142 18 -18 42 -37 52 -43 69 -36 -18 101 -139 221 -108 106 -221 183 -371
250 -184 82 -269 100 -494 104 -129 2 -217 -1 -275 -10z"></path>
<path d="M8144 7269 c3 -13 14 -72 23 -130 16 -105 16 -106 -5 -150 -30 -62
-89 -99 -160 -99 -59 0 -170 26 -274 64 -38 13 -68 20 -68 16 0 -13 104 -110
181 -167 141 -106 256 -159 371 -170 72 -7 117 18 148 82 19 39 20 50 10 107
-28 166 -76 284 -165 403 -50 66 -72 82 -61 44z"></path>
<path d="M8424 6818 c3 -13 9 -68 12 -123 6 -115 -6 -153 -64 -191 -71 -48
-167 -40 -334 26 -56 21 -104 38 -106 35 -9 -8 66 -104 138 -176 84 -85 118
-111 205 -159 52 -28 70 -33 131 -33 84 0 127 20 159 73 17 30 20 52 20 150 0
146 -10 178 -116 367 -27 49 -55 67 -45 31z"></path>
<path d="M2547 6807 c-74 -89 -291 -446 -364 -597 -46 -95 -111 -271 -127
-342 -12 -54 19 -18 109 127 49 80 92 141 96 137 7 -6 14 -44 39 -202 11 -75
28 -116 41 -103 6 6 14 55 20 109 11 121 34 255 70 404 4 19 12 53 18 75 32
137 106 373 122 390 5 5 9 13 9 17 0 15 -15 8 -33 -15z"></path>
<path d="M8620 6731 c0 -122 7 -141 88 -242 33 -42 90 -120 127 -173 37 -53
69 -96 71 -96 6 0 5 6 -71 325 -29 121 -35 130 -157 237 l-58 50 0 -101z"></path>
<path d="M8844 6747 c-6 -18 26 -146 58 -227 27 -68 109 -228 173 -335 54 -92
145 -218 152 -211 3 2 -7 34 -21 70 -14 35 -26 69 -26 75 0 6 -4 19 -9 29 -38
75 -50 149 -54 339 -2 99 -8 167 -15 175 -6 8 -28 19 -49 26 -21 8 -47 17 -58
22 -11 5 -40 16 -65 24 -25 8 -53 17 -62 21 -12 5 -20 2 -24 -8z"></path>
<path d="M2253 6547 c-66 -71 -218 -337 -273 -477 -12 -30 -27 -68 -35 -85
-46 -106 -144 -396 -165 -490 -6 -28 -7 -59 -1 -83 15 -63 56 -167 66 -167 5
0 26 33 47 74 32 61 38 84 38 135 1 97 26 283 54 386 53 200 90 296 211 545
47 98 84 179 82 181 -2 2 -13 -6 -24 -19z"></path>
<path d="M8640 6329 c0 -158 -22 -207 -114 -252 -89 -44 -143 -36 -275 41 -40
23 -76 40 -80 37 -8 -9 55 -129 105 -200 83 -120 220 -215 307 -215 61 0 126
39 153 93 20 37 20 281 0 363 -20 85 -64 206 -81 224 -13 13 -15 2 -15 -91z"></path>
<path d="M2467 6302 c-3 -15 -10 -45 -16 -67 -28 -102 -41 -209 -41 -347 0
-84 4 -148 9 -148 19 0 92 98 131 175 72 146 138 379 70 248 -38 -73 -101
-173 -110 -173 -12 0 -20 84 -20 211 0 111 -11 162 -23 101z"></path>
<path d="M8962 5915 l3 -160 37 -75 c19 -41 52 -110 71 -152 20 -43 39 -78 43
-78 8 0 -2 217 -16 325 -8 64 -19 96 -61 174 -81 153 -81 153 -77 -34z"></path>
<path d="M2187 5957 c-57 -117 -101 -230 -128 -327 -23 -81 -30 -108 -43 -175
-26 -123 -37 -252 -37 -435 0 -180 6 -250 22 -250 13 0 15 10 29 125 10 89 15
120 35 215 3 14 9 32 14 39 13 21 36 -9 102 -136 30 -56 57 -99 60 -95 3 4 2
114 -4 244 -6 149 -6 356 0 555 5 175 6 322 3 326 -4 5 -28 -34 -53 -86z"></path>
<path d="M8855 5938 c-3 -18 -10 -64 -15 -102 -26 -173 -116 -264 -237 -241
-49 9 -102 37 -195 101 -42 30 -79 54 -82 54 -10 0 -7 -37 5 -67 6 -15 15 -37
19 -48 20 -57 97 -197 133 -244 23 -30 64 -70 90 -89 40 -29 57 -35 102 -36
46 0 60 4 92 30 50 40 85 94 114 174 20 57 23 84 23 220 1 148 -16 280 -36
280 -4 0 -10 -15 -13 -32z"></path>
<path d="M2348 5585 c-8 -8 75 -395 98 -455 l13 -35 0 45 c0 77 -18 364 -24
385 -3 11 -21 30 -40 43 -38 24 -39 24 -47 17z"></path>
<path d="M2286 5522 c-6 -11 18 -350 34 -457 26 -180 71 -399 84 -413 3 -3 6
91 6 208 0 210 -1 216 -35 359 -64 263 -80 318 -89 303z"></path>
<path d="M8921 5310 c-61 -160 -106 -200 -220 -200 -95 0 -174 56 -262 184
-47 70 -59 79 -59 44 0 -26 43 -199 66 -268 89 -266 256 -338 403 -174 52 58
84 120 106 203 20 77 30 244 18 289 -8 33 -9 31 -52 -78z"></path>
<path d="M9100 5155 c-30 -70 -50 -157 -50 -216 0 -51 34 -266 43 -276 3 -2
15 26 26 64 12 37 26 77 30 88 39 89 52 155 40 200 -22 89 -54 185 -62 185 -4
0 -16 -20 -27 -45z"></path>
<path d="M2080 4767 c0 -378 37 -582 146 -816 34 -73 73 -135 79 -129 2 2 0
68 -5 148 -9 155 -5 210 15 210 25 0 111 -78 180 -161 87 -105 95 -113 102
-106 9 10 -30 101 -154 356 -88 181 -165 343 -200 421 -83 181 -144 300 -153
300 -6 0 -10 -75 -10 -223z"></path>
<path d="M8402 4744 c4 -121 9 -162 27 -215 45 -130 143 -196 248 -167 65 18
150 128 193 252 35 99 62 267 43 266 -5 -1 -27 -40 -50 -89 -73 -153 -149
-206 -249 -176 -74 22 -121 78 -165 198 -42 117 -52 102 -47 -69z"></path>
<path d="M1841 4773 c-12 -39 -21 -80 -21 -92 0 -25 86 -255 108 -288 37 -58
57 -7 57 152 0 83 -4 108 -22 145 -35 70 -61 112 -82 133 -19 20 -20 19 -40
-50z"></path>
<path d="M8352 4413 c-41 -137 -51 -342 -20 -398 35 -65 96 -105 156 -105 83
0 207 115 277 255 34 70 75 178 75 199 0 6 -25 -17 -56 -52 -81 -91 -131 -122
-194 -122 -79 0 -117 26 -159 110 -16 30 -34 76 -42 103 -7 26 -16 47 -20 47
-3 0 -11 -17 -17 -37z"></path>
<path d="M8980 4336 c-71 -75 -78 -85 -96 -158 -30 -116 -62 -283 -55 -290 3
-4 39 41 79 100 40 59 93 133 118 164 l46 56 -13 91 c-7 50 -16 91 -20 91 -4
0 -31 -25 -59 -54z"></path>
<path d="M8230 4035 c0 -8 -4 -23 -9 -33 -14 -24 -48 -135 -66 -212 -20 -86
-19 -229 1 -302 15 -52 19 -58 43 -58 64 0 214 113 296 222 57 75 148 228 141
236 -3 2 -32 -20 -64 -50 -79 -73 -122 -93 -167 -78 -18 6 -51 24 -72 39 -42
31 -56 64 -68 161 -3 30 -9 63 -11 73 -6 21 -24 23 -24 2z"></path>
<path d="M2394 3966 c-16 -43 65 -332 131 -466 83 -169 263 -441 273 -412 2 6
-4 47 -12 92 -21 108 -21 170 -1 170 9 0 65 -23 125 -52 61 -28 113 -48 116
-45 9 9 -171 271 -260 377 -140 169 -360 368 -372 336z"></path>
<path d="M1823 3868 c55 -69 123 -174 135 -208 6 -19 24 -92 41 -162 16 -69
36 -139 46 -155 20 -33 76 -75 124 -91 34 -12 91 -16 91 -7 0 11 -65 168 -105
251 -80 169 -148 256 -284 362 -64 50 -83 54 -48 10z"></path>
<path d="M2100 3863 c0 -26 35 -193 46 -218 15 -34 220 -242 230 -233 3 4 -1
58 -10 120 l-16 113 -116 113 c-107 103 -134 124 -134 105z"></path>
<path d="M8629 3612 c-71 -71 -78 -83 -98 -152 -48 -167 -63 -216 -72 -239
-12 -30 -4 -39 18 -19 25 20 203 176 231 200 21 19 22 28 22 154 0 101 -3 134
-12 134 -7 0 -47 -35 -89 -78z"></path>
<path d="M8001 3598 c-12 -20 -29 -48 -77 -134 -13 -23 -42 -83 -64 -133 -36
-83 -40 -100 -40 -175 0 -77 2 -85 26 -110 50 -49 141 -26 260 65 59 45 279
268 272 275 -3 2 -43 -14 -89 -36 -75 -37 -90 -41 -141 -38 -102 7 -135 62
-125 210 6 91 0 111 -22 76z"></path>
<path d="M7687 3183 c-121 -130 -186 -226 -237 -346 -25 -61 -37 -152 -21
-161 27 -17 119 -18 180 -2 81 21 249 104 326 161 73 54 180 158 167 163 -5 1
-48 -18 -96 -44 -74 -39 -95 -46 -146 -47 -49 0 -65 4 -93 26 -49 37 -58 83
-41 199 7 50 12 93 10 95 -2 2 -24 -18 -49 -44z"></path>
<path d="M2155 3177 c118 -98 158 -149 228 -288 78 -154 124 -222 167 -244 27
-14 39 -14 86 -4 30 7 54 17 54 23 0 7 -46 68 -103 137 -207 254 -241 287
-391 377 -88 53 -105 53 -41 -1z"></path>
<path d="M2882 3197 c-39 -46 95 -329 228 -482 52 -60 182 -186 187 -181 2 1
-8 34 -23 72 -20 55 -25 82 -22 131 2 35 8 67 14 73 7 7 44 5 115 -5 125 -18
129 -18 129 -5 0 13 -53 74 -127 146 -113 112 -263 205 -383 237 -94 26 -107
27 -118 14z"></path>
<path d="M2534 3123 c19 -80 60 -195 74 -212 25 -28 262 -184 269 -177 4 3 2
16 -4 29 -6 12 -25 60 -43 107 -49 133 -56 144 -86 160 -16 8 -66 39 -111 67
-46 29 -88 53 -94 53 -7 0 -9 -10 -5 -27z"></path>
<path d="M8167 2907 c-103 -64 -132 -91 -160 -149 -36 -75 -89 -210 -83 -215
7 -7 75 31 166 94 l85 58 28 85 c15 47 32 99 37 116 12 36 13 54 3 53 -5 0
-38 -19 -76 -42z"></path>
<path d="M7244 2788 c-179 -183 -228 -275 -222 -412 l3 -70 60 3 c144 6 270
53 430 161 114 77 220 181 158 155 -21 -9 -67 -19 -186 -40 -99 -18 -116 -13
-147 38 -29 47 -26 89 19 235 16 54 -8 39 -115 -70z"></path>
<path d="M8299 2713 c-79 -65 -299 -286 -373 -373 -82 -99 -160 -214 -154
-231 2 -6 25 13 50 43 45 53 115 102 286 204 45 27 99 64 118 82 36 34 80 119
103 202 7 25 17 56 23 69 16 41 -6 43 -53 4z"></path>
<path d="M3395 2697 c-46 -21 -60 -56 -44 -103 42 -123 227 -304 421 -412 128
-72 168 -92 168 -85 0 10 -54 87 -83 118 -21 23 -59 89 -68 122 -9 28 19 65
61 83 32 13 206 9 244 -6 14 -5 18 -3 14 7 -10 33 -216 157 -368 222 -128 55
-288 80 -345 54z"></path>
<path d="M2780 2586 c0 -3 27 -21 60 -41 33 -20 66 -42 73 -48 6 -7 28 -24 48
-39 21 -15 72 -82 120 -157 97 -151 115 -165 218 -163 83 1 92 11 55 59 -51
68 -207 218 -269 260 -114 76 -305 157 -305 129z"></path>
<path d="M3066 2578 c33 -56 126 -167 163 -194 40 -29 181 -94 204 -94 17 0 5
30 -35 86 -76 109 -110 133 -268 193 -64 24 -74 26 -64 9z"></path>
<path d="M6845 2546 c-137 -74 -158 -86 -233 -143 -93 -71 -154 -140 -172
-193 -12 -36 -12 -48 1 -83 39 -114 240 -140 474 -62 109 37 232 104 295 162
l25 23 -30 1 c-265 8 -366 16 -376 26 -23 23 36 186 104 286 26 38 8 35 -88
-17z"></path>
<path d="M7605 2359 c-38 -11 -99 -24 -135 -30 -37 -6 -72 -17 -81 -27 -29
-31 -182 -272 -177 -278 3 -3 50 6 104 20 55 14 112 28 128 31 16 3 45 23 64
43 31 35 182 247 182 257 0 7 -5 6 -85 -16z"></path>
<path d="M4001 2339 c-82 -16 -103 -65 -57 -137 44 -70 159 -148 366 -249 112
-55 281 -125 287 -119 2 1 -47 53 -108 115 -109 111 -111 113 -104 149 10 56
22 71 63 77 20 4 57 10 82 15 25 6 63 13 84 18 22 4 41 12 43 17 3 10 -9 16
-89 50 -141 58 -431 91 -567 64z"></path>
<path d="M6332 2304 c-187 -50 -288 -101 -370 -188 -82 -87 -104 -165 -61
-219 32 -42 76 -49 269 -45 162 3 184 6 295 37 163 45 218 64 219 76 1 6 -10
11 -24 12 -31 4 -138 19 -231 35 -70 11 -122 37 -143 70 -13 21 -1 45 71 150
29 42 53 79 53 82 0 9 -18 6 -78 -10z"></path>
<path d="M5825 2159 c-210 -39 -380 -101 -509 -188 -76 -52 -95 -78 -82 -119
9 -26 130 -80 226 -99 163 -33 720 -16 678 21 -7 7 -38 18 -68 25 -30 7 -68
17 -85 21 -16 5 -50 14 -75 21 -133 36 -210 67 -210 86 0 38 66 107 161 170
55 35 99 66 99 69 0 7 -81 2 -135 -7z"></path>
<path d="M4780 2145 c-36 -8 -78 -20 -95 -26 -99 -37 -140 -57 -158 -77 -17
-19 -16 -21 30 -62 45 -40 175 -130 187 -130 4 0 25 -8 49 -19 91 -40 217 -73
372 -96 116 -18 135 -18 135 -5 0 6 -4 10 -9 10 -35 0 -230 140 -251 181 -21
38 93 123 210 159 47 14 74 30 66 37 -14 14 -180 34 -316 38 -115 4 -172 1
-220 -10z"></path>
<path d="M3710 2080 c0 -5 3 -10 8 -10 4 -1 33 -25 65 -55 32 -29 87 -67 122
-84 63 -31 125 -41 125 -20 0 16 -92 119 -120 134 -32 16 -144 45 -176 45 -13
0 -24 -4 -24 -10z"></path>
<path d="M6965 1970 c-16 -4 -55 -8 -86 -9 -53 -1 -59 -4 -136 -68 -105 -89
-150 -125 -179 -143 -21 -13 -39 -39 -32 -45 4 -4 277 15 306 21 25 5 98 75
178 171 27 32 52 60 57 61 4 2 7 8 7 13 0 11 -72 10 -115 -1z"></path>
<path d="M4290 1836 c0 -14 154 -105 205 -121 70 -22 170 -26 170 -6 0 27
-107 91 -175 105 -81 17 -200 30 -200 22z"></path>
<path d="M6040 1690 c-8 -6 -64 -33 -123 -60 -61 -28 -107 -55 -105 -61 5 -16
175 -71 223 -72 30 -1 56 8 105 37 36 21 81 48 100 58 90 51 131 81 118 88
-22 12 -301 20 -318 10z"></path>
<path d="M5175 1660 c-38 -11 -73 -19 -77 -19 -37 -3 62 -87 154 -132 l47 -22
122 17 c68 10 129 21 137 25 16 9 -58 60 -167 114 -84 42 -112 44 -216 17z"></path>
<path d="M6905 1663 c-11 -2 -74 -15 -140 -29 -66 -14 -131 -29 -145 -33 -14
-5 -45 -14 -70 -21 -132 -37 -256 -87 -341 -136 -61 -36 -166 -130 -157 -140
4 -3 45 13 92 35 47 22 114 49 148 60 67 21 264 41 399 41 112 0 122 6 210
137 63 92 63 99 4 86z"></path>
<path d="M4720 1509 c-122 -19 -127 -21 -104 -29 11 -4 56 -11 100 -15 91 -7
164 -28 284 -81 109 -48 169 -50 255 -9 73 35 71 33 58 46 -16 16 -206 77
-276 89 -73 12 -239 11 -317 -1z"></path>
<path d="M5640 1429 c-82 -14 -149 -29 -205 -46 -58 -18 -192 -80 -199 -92 -5
-8 49 0 134 19 151 35 211 35 385 0 108 -22 126 -23 153 -9 56 29 162 99 162
108 0 20 -340 36 -430 20z"></path>
</g>
</svg><style>@media (prefers-color-scheme: light) { :root { filter: none; } }
@media (prefers-color-scheme: dark) { :root { filter: invert(100%); } }
</style></svg>